HIERARCHY
ROOT root
{
	OFFSET 0.00 0.00 0.00
	CHANNELS 6 Xposition Yposition Zposition Xrotation Yrotation Zrotation
	End Site
	{
		OFFSET 3.93700 0.00000 0.00000
	}
}
MOTION
Frames: 80
Frame Time: 0.008333
 -2.9634 1.9309 -36.4372 90.2895 -0.4203 -70.7204
 -2.9647 1.9288 -36.4375 90.3047 -0.4094 -70.7128
 -2.9641 1.9282 -36.4369 90.2972 -0.3931 -70.7095
 -2.9643 1.9287 -36.4367 90.2940 -0.4076 -70.7155
 -2.9642 1.9296 -36.4369 90.2973 -0.4043 -70.7073
 -2.9642 1.9294 -36.4374 90.2927 -0.4016 -70.7118
 -2.9640 1.9301 -36.4380 90.2933 -0.4182 -70.7123
 -2.9618 1.9202 -36.4339 90.3315 -0.3487 -70.7421
 -2.9635 1.9303 -36.4377 90.2829 -0.4189 -70.7120
 -2.9640 1.9296 -36.4373 90.2982 -0.4059 -70.7119
 -2.9648 1.9304 -36.4378 90.2970 -0.4213 -70.7090
 -2.9649 1.9290 -36.4378 90.2943 -0.3943 -70.7031
 -2.9639 1.9289 -36.4385 90.2861 -0.4028 -70.7084
 -2.9637 1.9288 -36.4373 90.2952 -0.4065 -70.7153
 -2.9644 1.9290 -36.4378 90.3007 -0.4017 -70.7105
 -2.9640 1.9289 -36.4376 90.3083 -0.4005 -70.7126
 -2.9642 1.9297 -36.4375 90.2957 -0.4021 -70.7085
 -2.9637 1.9282 -36.4370 90.3043 -0.3951 -70.7093
 -2.9638 1.9304 -36.4367 90.2919 -0.4168 -70.7247
 -2.9641 1.9282 -36.4372 90.2967 -0.3923 -70.7189
 -2.9645 1.9292 -36.4373 90.2918 -0.4067 -70.7115
 -2.9644 1.9306 -36.4384 90.2896 -0.4022 -70.7071
 -2.9642 1.9297 -36.4368 90.2975 -0.4111 -70.7150
 -2.9638 1.9297 -36.4370 90.2971 -0.4097 -70.7164
 -2.9640 1.9294 -36.4382 90.2996 -0.4033 -70.7097
 -2.9639 1.9275 -36.4376 90.3094 -0.3899 -70.7164
 -2.9640 1.9289 -36.4377 90.3024 -0.4060 -70.7102
 -2.9654 1.9291 -36.4379 90.2959 -0.4128 -70.7088
 -2.9642 1.9290 -36.4373 90.3036 -0.4018 -70.7114
 -2.9642 1.9297 -36.4374 90.2953 -0.4084 -70.7133
 -2.9642 1.9283 -36.4379 90.3022 -0.3962 -70.7116
 -2.9642 1.9297 -36.4378 90.2913 -0.4115 -70.7104
 -2.9643 1.9295 -36.4374 90.3024 -0.4057 -70.7158
 -2.9617 1.9189 -36.4338 90.3498 -0.3255 -70.7390
 -2.9646 1.9303 -36.4368 90.3022 -0.4183 -70.7130
 -2.9641 1.9280 -36.4377 90.2971 -0.4043 -70.7090
 -2.9642 1.9289 -36.4386 90.3015 -0.4022 -70.7104
 -2.9633 1.9293 -36.4371 90.3055 -0.4133 -70.7211
 -2.9642 1.9296 -36.4383 90.2885 -0.4122 -70.7054
 -2.9641 1.9286 -36.4381 90.2938 -0.3905 -70.7069
 -2.9637 1.9298 -36.4376 90.2907 -0.4021 -70.7126
 -2.9646 1.9284 -36.4372 90.3083 -0.3949 -70.7163
 -2.9643 1.9287 -36.4378 90.3082 -0.4067 -70.7060
 -2.9656 1.9285 -36.4384 90.2942 -0.4027 -70.7016
 -2.9636 1.9295 -36.4372 90.3088 -0.4098 -70.7163
 -2.9638 1.9301 -36.4374 90.3041 -0.4226 -70.7153
 -2.9637 1.9287 -36.4372 90.2981 -0.3951 -70.7129
 -2.9645 1.9300 -36.4376 90.2827 -0.4106 -70.7125
 -2.9645 1.9295 -36.4379 90.3108 -0.4062 -70.7113
 -2.9642 1.9290 -36.4374 90.2958 -0.4038 -70.7085
 -2.9646 1.9285 -36.4372 90.2944 -0.3966 -70.7196
 -2.9645 1.9277 -36.4374 90.3027 -0.3999 -70.7171
 -2.9646 1.9297 -36.4385 90.2926 -0.4035 -70.7094
 -2.9637 1.9305 -36.4362 90.2800 -0.4053 -70.7207
 -2.9643 1.9295 -36.4369 90.3027 -0.4126 -70.7146
 -2.9637 1.9297 -36.4374 90.2996 -0.4156 -70.7116
 -2.9648 1.9296 -36.4369 90.2963 -0.4107 -70.7149
 -2.9642 1.9288 -36.4378 90.2973 -0.3926 -70.7079
 -2.9643 1.9280 -36.4372 90.2976 -0.3936 -70.7147
 -2.9642 1.9306 -36.4374 90.2946 -0.4204 -70.7208
 -2.9642 1.9301 -36.4377 90.2972 -0.4106 -70.7113
 -2.9640 1.9301 -36.4365 90.3031 -0.4173 -70.7197
 -2.9646 1.9289 -36.4376 90.3066 -0.4118 -70.7185
 -2.9643 1.9283 -36.4376 90.2958 -0.3947 -70.7191
 -2.9644 1.9286 -36.4369 90.3063 -0.4043 -70.7139
 -2.9648 1.9300 -36.4369 90.2950 -0.4174 -70.7187
 -2.9644 1.9302 -36.4374 90.2938 -0.4072 -70.7136
 -2.9639 1.9303 -36.4369 90.2935 -0.4213 -70.7191
 -2.9639 1.9280 -36.4372 90.2980 -0.3968 -70.7164
 -2.9650 1.9291 -36.4381 90.3035 -0.4100 -70.7094
 -2.9616 1.9203 -36.4336 90.3417 -0.3496 -70.7370
 -2.9638 1.9286 -36.4371 90.2911 -0.3950 -70.7166
 -2.9646 1.9282 -36.4378 90.2954 -0.3986 -70.7086
 -2.9644 1.9281 -36.4376 90.2898 -0.3931 -70.7121
 -2.9636 1.9284 -36.4373 90.3097 -0.4027 -70.7144
 -2.9636 1.9287 -36.4378 90.3014 -0.4107 -70.7078
 -2.9651 1.9303 -36.4377 90.2918 -0.4090 -70.7114
 -2.9647 1.9301 -36.4368 90.2967 -0.4144 -70.7134
 -2.9641 1.9301 -36.4370 90.2980 -0.4127 -70.7194
 -2.9643 1.9300 -36.4378 90.2934 -0.4250 -70.7125
